<?xml version="1.0" encoding="UTF-8"?>
<svg id="Layer_2" data-name="Layer 2" xmlns="http://www.w3.org/2000/svg" viewBox="0 0 360 174.49">
  <defs>
    <style>
      .cls-1 {
        fill: #ffce55;
        stroke-width: 0px;
      }
    </style>
  </defs>
  <g id="Layer_1-2" data-name="Layer 1">
    <g>
      <path class="cls-1" d="M123.71,100.18l.25.05c-2.1-1.28-3.43-3.37-3.82-5.64-.03-.19-.19-.34-.39-.35-3.13-.12-6.64-.87-10.11-2.11-.25-.09-.52.07-.55.33-.17,1.52-1.01,3.86-3.94,6.52-.34.31-.84-.09-.64-.49,1.2-2.45,2.3-6.61-2.03-9.39-.02-.01-.05-.03-.07-.04-3.9-1.69-8.57-2.55-13.91-2.55-.28,0-.56,0-.84,0h-.07s-.13,0-.13,0h-.06c-.31,0-.61,0-.91,0-5.9,0-10.98,1.05-15.11,3.11-.03.02-.06.04-.09.06-3.37,2.75-2.34,6.53-1.22,8.81.2.4-.31.79-.65.48-2.93-2.66-3.76-5-3.94-6.52-.03-.26-.3-.42-.55-.33-3.46,1.24-6.98,1.98-10.1,2.11-.2,0-.36.15-.39.35-.05.28-.1.57-.18.85-.6,2.12-1.98,3.88-3.9,4.96l-2.49,1.4c-.27.15-.28.53-.03.7,1.03.71,2.24,1.18,3.58,1.34l.62.08s-2.75,4.13-3.52,9.27c-.06.42.47.65.73.32,1-1.3,2.88-3.32,5.77-4.96.3-.17.67.08.61.42-.15.94-.31,2.59-.13,4.48.04.44.65.52.8.1.9-2.56,3.18-7.57,8.28-12.17.35-.31.87.1.64.5-2.2,3.92-5.82,12.82-2.82,25.57.05.23.29.37.52.31,1.46-.42,2.9-.91,4.32-1.44.15-.06.25-.19.27-.35l1.09-12.29c.03-.36.48-.51.72-.24l7.25,8.13c.13.14.34.18.5.09,2.79-1.51,5.58-3.08,8.41-4.51.12-.06.2-.18.22-.31l1.37-10.8c.06-.48.76-.48.82,0l1.12,8.8c.03.28.33.44.58.32,7.63-3.57,16.98-7.13,25.23-5.03.3.08.59-.19.51-.49-.84-3.3-2.02-5.8-2.94-7.42-.23-.4.28-.82.63-.52,4.56,3.93,6.2,7.18,6.79,8.98.14.41.73.36.8-.07.43-2.64-.52-5.59-1.12-7.1-.15-.37.27-.7.6-.5,1.28.78,2.42,2.03,3.13,2.91.25.31.75.11.73-.28-.1-2.45-.48-4.09-.73-4.92-.09-.3.17-.58.47-.52ZM98.2,98.5c-.62.93-1.71,1.35-2.76,1.15-1.47-.28-4.12-.65-7.89-.65s-6.43.37-7.89.65c-1.05.2-2.14-.22-2.76-1.15-1.55-2.3-1.06-5.28-.42-6.68.36-.8,1.5-1.12,1.95-.38,3.72,6.22,8.55,5.84,9.08,5.77.03,0,.06,0,.1,0,.53.06,5.37.45,9.08-5.77.45-.75,1.59-.42,1.95.38.63,1.4,1.12,4.38-.42,6.68Z"/>
      <path class="cls-1" d="M49.46,93.32c.08-.23-.07-.47-.3-.53-9.52-2.18-16.65-10.72-16.65-20.9,0-2.82.55-5.51,1.54-7.97.05-.11.04-.24-.02-.35l-.56-1c-.6-1.08-1.72-1.68-2.88-1.68-.36,0-.72.06-1.07.19-.18.07-.39-.02-.48-.19l-1.98-3.54c-.05-.09-.14-.16-.24-.2-2.18-.66-3.34,1.24-2.58,2.59l1.6,2.86c.11.2.04.45-.16.56l-1.63.91c-.2.11-.45.04-.56-.16l-3.72-6.64c-.05-.09-.14-.16-.24-.2-2.18-.66-3.34,1.24-2.58,2.59l3.45,6.16c.09.15.07.35-.05.48-1.01,1.02-1.27,2.62-.53,3.93l15.75,28.09c.6,1.08,1.72,1.68,2.88,1.68.55,0,1.1-.14,1.61-.42l7.9-4.44c.74-.42,1.26-1.08,1.51-1.83Z"/>
      <path class="cls-1" d="M265.47,67.78h-8.37v20.38h8.37c1.05,0,1.82-.23,2.3-.67.49-.44.73-1.11.73-1.99v-15.07c0-.88-.24-1.54-.73-1.98-.49-.44-1.25-.67-2.3-.67Z"/>
      <path class="cls-1" d="M258.57,147.38h-2.12v9.37h2.12c1.59,0,2.77-.38,3.52-1.14.75-.76,1.13-1.96,1.13-3.55s-.38-2.79-1.14-3.54c-.76-.75-1.94-1.13-3.52-1.13Z"/>
      <path class="cls-1" d="M156.03,67.15l-2.7-1.52c-.2-.11-.27-.36-.16-.56l1.58-2.81c.11-.2.04-.45-.16-.56l-6.09-3.42c-.2-.11-.45-.04-.56.16l-1.58,2.81c-.11.2-.36.27-.56.16l-.19-.1c-.51-.29-1.06-.42-1.61-.42-1.15,0-2.27.61-2.88,1.68l-.56.99c-.06.11-.07.24-.02.35.99,2.47,1.54,5.16,1.54,7.98,0,10.18-7.13,18.73-16.66,20.9-.24.05-.38.3-.3.53.25.75.77,1.41,1.51,1.82l7.9,4.44c.51.29,1.06.42,1.61.42,1.15,0,2.27-.61,2.88-1.68l.53-.95c.09-.15.07-.34-.05-.48l-2.29-2.58c-.12-.13-.14-.32-.05-.48l3.99-7.12c.09-.15.26-.23.43-.2l3.4.61c.17.03.35-.05.43-.2l10.76-19.2c.11-.2.04-.45-.16-.56Z"/>
      <path class="cls-1" d="M260.47,27.6v-5.83c0-.35-.1-.62-.29-.79-.19-.18-.5-.27-.92-.27h-2.04c-.42,0-.73.09-.92.27-.19.17-.29.44-.29.79v7.14h4.47v-1.32Z"/>
      <path class="cls-1" d="M235.62,28.64c.19-.17.29-.44.29-.79v-6.07c0-.35-.1-.62-.29-.79-.19-.18-.5-.27-.92-.27h-3.35v8.19h3.35c.42,0,.73-.09.92-.27Z"/>
      <path class="cls-1" d="M106.06,85.31c2.12,1.12,4.34,1.64,6.5,1.64,7.18,0,13.78-5.67,14.06-13.61,0-.2.01-.41.02-.61.14-8.17-6.58-14.26-14.03-14.26-1.93,0-3.91.41-5.83,1.3-3.42,1.58-6.84,2.85-9.83,3.85-3.06,1.02-6.25,1.52-9.44,1.52s-6.38-.51-9.44-1.52c-2.99-.99-6.42-2.27-9.83-3.85-1.92-.89-3.9-1.3-5.83-1.3-7.45,0-14.18,6.08-14.03,14.26,0,.2,0,.4.02.61.28,7.95,6.87,13.61,14.06,13.61,2.17,0,4.38-.51,6.5-1.64,4.2-2.23,9.89-3.85,17.55-3.85.33,0,.67,0,1.01,0,.34,0,.68,0,1.01,0,7.66,0,13.35,1.63,17.56,3.85Z"/>
      <path class="cls-1" d="M46.82,39.96c1.37-.41,7.6-1.67,16.45,6.08,10.06,8.8,13.94,14.38,24.27,14.39h0c5.17,0,8.72-1.4,12.24-3.89,3.52-2.5,7.01-6.09,12.04-10.49,8.82-7.72,15.03-6.51,16.43-6.09.18.05.38-.02.47-.18,1.01-1.71,1.44-3.87.38-5.96-1.06-2.07-1.84-2.45-5.22-3.71-.02-.03-.04-.06-.06-.09-5.21-.83-11.5,2.1-14.69,5.89-3.48,3.85-6.36,8.1-9.39,12.34-3.29,4.57-5.92,8.58-12.21,8.53-4.57,0-7.46-2.14-10.05-5.69-2.83-3.75-5.36-7.65-8.21-11.34-.05-.07-.11-.13-.16-.2h-.08s.04-.06.04-.06c-.99-1.25-1.98-2.48-3.05-3.66-.97-1.11-2.08-2.08-3.38-2.8-3.72-2.1-8.68-2.69-12.81-1.34,0,.01-.01.02-.02.04-3.01,1.41-3.75,1.83-4.34,3.34-.62,1.59-.04,3.33.88,4.72.1.15.29.21.46.16Z"/>
      <path class="cls-1" d="M206.88,85v-14.57c0-.88-.25-1.55-.73-1.98-.48-.45-1.26-.66-2.3-.66h-5.09c-1.06,0-1.82.22-2.3.66-.48.43-.73,1.1-.73,1.98v17.86h11.17v-3.29Z"/>
      <path class="cls-1" d="M350.82,0H9.18C4.11,0,0,4.11,0,9.18v156.12c0,5.07,4.11,9.18,9.18,9.18h341.63c5.07,0,9.18-4.11,9.18-9.18V9.18c0-5.07-4.11-9.18-9.18-9.18ZM247.51,39.64v-18.97c0-1.8.54-3.25,1.63-4.34,1.08-1.09,2.92-1.64,5.51-1.64h7.18c2.58,0,4.42.54,5.51,1.64,1.08,1.09,1.62,2.54,1.62,4.34v24.95h-8.48v-10.98h-4.47v10.98h-8.49v-5.97ZM222.86,14.7h14.41c2.59,0,4.42.54,5.51,1.64,1.08,1.09,1.63,2.54,1.63,4.34v8c0,1.8-.54,3.24-1.63,4.34-.61.61-1.47,1.05-2.55,1.32l5.73,11.3h-9.12l-4.94-10.98h-.55v10.98h-8.49V14.7ZM198.5,20.67c0-1.8.54-3.25,1.63-4.34,1.08-1.09,2.92-1.64,5.51-1.64h6.84c2.59,0,4.42.54,5.51,1.64,1.08,1.09,1.62,2.54,1.62,4.34v5.59h-8.49v-4.96c0-.35-.1-.62-.29-.8-.2-.18-.5-.27-.92-.27h-1.7c-.42,0-.73.09-.92.27-.19.18-.29.44-.29.8v17.72c0,.35.1.62.29.79.19.18.5.27.92.27h1.7c.42,0,.73-.09.92-.27.19-.18.29-.44.29-.79v-4.77h8.49v5.39c0,1.8-.54,3.25-1.62,4.34-1.08,1.09-2.92,1.64-5.51,1.64h-6.84c-2.59,0-4.42-.54-5.51-1.64-1.08-1.09-1.63-2.54-1.63-4.34v-18.98ZM174.48,20.67c0-1.8.53-3.25,1.6-4.34,1.07-1.09,2.89-1.64,5.48-1.64h6.65c2.59,0,4.41.54,5.48,1.64,1.07,1.09,1.6,2.54,1.6,4.34v3.71h-8.49v-2.6c0-.35-.1-.62-.29-.79-.19-.18-.5-.27-.92-.27h-1.41c-.42,0-.73.09-.92.27-.19.18-.29.44-.29.79v4.58c0,.35.1.62.29.8.19.18.5.26.92.26h4.56c2.52,0,4.26.53,5.22,1.59.95,1.06,1.43,2.49,1.43,4.28v6.36c0,1.8-.53,3.25-1.6,4.34-1.07,1.09-2.89,1.64-5.48,1.64h-6.6c-2.59,0-4.42-.54-5.51-1.64-1.08-1.09-1.62-2.54-1.62-4.34v-3.71h8.49v2.6c0,.35.1.62.29.79.19.18.5.27.92.27h1.41c.42,0,.73-.09.92-.27.19-.18.29-.44.29-.79v-4.39c0-.35-.1-.62-.29-.79-.19-.18-.5-.27-.92-.27h-4.66c-2.52,0-4.25-.56-5.17-1.69-.92-1.12-1.38-2.58-1.38-4.38v-6.36ZM90.22,159.8h-4.34c-.28,0-.51-.22-.53-.5-.07-1.36-.06-2.79.15-3.87.06-.35.5-.46.72-.19.64.78,2.21,2.18,4.29,3.59.43.29.23.96-.29.96ZM159.9,75.92c0,.57-.77.73-1.01.22l-.45-.99c-.14-.31-.57-.32-.73-.03l-13.44,23.97c-.17.29.07.65.41.61l7.47-.9c.13-.02.25-.09.31-.21l1.16-2.07c.11-.2.04-.45-.16-.56l-2.59-1.45c-.2-.11-.27-.36-.16-.56l5.46-9.73c.11-.2.36-.27.56-.16l2.59,1.45c.2.11.45.04.56-.16l.02-.03v69.2c0,2.91-2.36,5.28-5.28,5.28h-52.27c-.38,0-.63-.38-.49-.72,1.72-4.19,4-11.34,4.6-19.78.03-.44.65-.53.8-.11.53,1.54,2.25,8.62,2.39,11.02.02.35.43.52.69.28,1.99-1.87,7.27-8.53,8.02-17.13.01-.14-.05-.28-.15-.37-5.18-4.31-11.64-5.24-15.36-5.39-.48-.02-.55-.7-.08-.81,3.86-.91,10.82-1.83,16.86,1.23.21.11.46.02.55-.19.37-.84.62-1.99.51-3.64-.18-2.63-1.71-3.69-3.65-4.89-.02,0-.03-.02-.05-.03-.44-.2-.87-.4-1.32-.57-1.88-.81-3.88-1.28-5.93-1.48-.2-.02-.38.11-.44.31-.38,1.36-1.22,2.56-2.31,3.69-.27.28-.74.06-.7-.33.11-1.22.17-2.39.02-3.42-.03-.2-.22-.35-.42-.34-5.83.26-11.85,2.18-16.97,4.13-5.26,2.05-10.57,4.76-15.74,7.12-3.46,1.47-7.01,2.73-10.64,3.68-.1.03-.19.09-.24.18-.86,1.41-2.24,2.62-2.25,5.65,0,2.75,1.43,3.36,2.55,3.93.08.04.16.05.24.04,3.57-.55,8.26-1.73,12.83-4.22.4-.22.81.27.52.62-1.69,2.04-5.18,5.59-10.8,8.19-.2.09-.3.34-.21.54,2.38,5.67,6.19,9.4,9.89,11.86.43.29.22.96-.3.96H19.97c-2.92,0-5.28-2.36-5.28-5.28v-67.18c0-.54.72-.73.99-.26l6.45,11.5c.06.11.18.19.31.21l3.55.43c.33.04.57-.32.41-.61l-4.21-7.5c-.11-.2-.04-.45.16-.56l2.06-1.16c.2-.11.27-.36.16-.56l-7.69-13.71c-.17-.29-.59-.28-.73.03l-.45.99c-.23.52-1.01.35-1.01-.22V19.97c0-2.91,2.36-5.28,5.28-5.28h40.16c.49,0,.71.6.35.92-1.93,1.68-3.64,3.54-5.13,5.65-.17.24-.04.57.24.64,3.84.95,7.46,2.7,10.6,5.22,1.17.99,2.29,2.11,3.21,3.37.5.66,1.32,1.96,1.8,2.66.24.37.48.75.71,1.13.15.24.49.26.67.05l5.63-6.78c.31-.37.9,0,.69.44l-4.62,9.81c-.06.12-.05.27.02.39,1.4,2.35,2.79,4.7,4.22,7,1.15,1.84,2.43,3.8,3.87,5.32,2.48,2.58,7.81,2.58,10.27,0,2.98-3.32,5.08-7.46,7.42-11.31,1.5-2.53,3.05-5.13,4.7-7.58.12-.18.23-.35.35-.53.08-.11.09-.25.05-.37l-1.77-4.7c-.14-.38.29-.72.62-.48l3.25,2.31c.17.12.39.1.53-.05,2.08-2.16,4.52-3.97,7.19-5.42.63-.34,1.28-.65,1.93-.94.27-.12.34-.41.15-.64-1.7-2.05-3.53-3.75-5.31-5.15-.4-.31-.18-.94.32-.94h42.5c2.92,0,5.28,2.36,5.28,5.28v55.95ZM186.74,157.97c-.55.77-1.32,1.37-2.31,1.79-.96.4-2.1.61-3.38.61-.82,0-1.61-.07-2.36-.21-.76-.14-1.47-.35-2.11-.62-.65-.27-1.23-.61-1.74-.99l-.35-.26,1.26-3.24.6.42c.44.31.91.57,1.4.79.48.22,1,.38,1.55.49.55.11,1.14.17,1.76.17.98,0,1.72-.16,2.12-.45.37-.27.54-.58.54-1,0-.21-.04-.38-.14-.52-.1-.15-.28-.28-.54-.41-.31-.15-.74-.28-1.28-.38l-2.36-.49c-1.46-.31-2.58-.85-3.32-1.6-.77-.78-1.16-1.82-1.16-3.08,0-1.06.29-2,.86-2.79.56-.78,1.34-1.39,2.32-1.81.95-.41,2.06-.62,3.29-.62.72,0,1.43.07,2.1.21.68.15,1.32.36,1.89.64.58.29,1.1.64,1.54,1.04l.29.27-1.28,3.14-.6-.5c-.54-.45-1.15-.79-1.79-1.02-.65-.23-1.38-.34-2.17-.34-.58,0-1.08.08-1.48.24-.37.14-.65.34-.83.59-.18.23-.26.51-.26.84,0,.35.1.6.32.8.18.16.59.4,1.49.58l2.34.49c1.51.32,2.66.84,3.43,1.55.81.75,1.22,1.75,1.22,2.98,0,1.01-.28,1.92-.83,2.7ZM195.71,130.04h-21.23v-62.37c0-4.5,1.35-8.12,4.06-10.84,2.71-2.74,7.3-4.1,13.77-4.1h17.96c6.46,0,11.06,1.36,13.77,4.1,2.69,2.72,4.05,6.34,4.05,10.84v62.37h-21.21v-27.45h-11.17v27.45ZM214.44,147.4h-5.18v12.75h-3.89v-12.75h-5.18v-3.43h14.26v3.43ZM240.54,153.42c0,2.25-.6,3.99-1.77,5.17-1.18,1.18-2.91,1.78-5.14,1.78s-3.95-.6-5.15-1.77c-1.2-1.18-1.81-2.92-1.81-5.18v-9.45h3.89v9.42c0,1.2.26,2.09.78,2.65.51.56,1.26.83,2.29.83s1.77-.27,2.27-.83c.51-.56.77-1.46.77-2.65v-9.42h3.87v9.45ZM266.23,156.43c-.68,1.22-1.67,2.16-2.95,2.8-1.25.62-2.78.93-4.55.93h-6.19v-16.18h6.19c1.77,0,3.3.31,4.55.93,1.28.63,2.27,1.57,2.95,2.78.67,1.2,1,2.66,1,4.36s-.34,3.17-1,4.37ZM288.13,160.16h-3.89v-16.18h3.89v16.18ZM289.73,88.28c0,4.5-1.36,8.1-4.06,10.84-2.71,2.72-7.3,4.1-13.77,4.1h-14.8v26.83h-21.23V52.73h36.02c6.47,0,11.06,1.36,13.77,4.1,2.71,2.72,4.06,6.34,4.06,10.84v20.61ZM293.61,28.91c0,1.8-.54,3.24-1.63,4.34-1.08,1.09-2.92,1.64-5.51,1.64h-5.92v10.73h-8.49V14.7h14.41c2.59,0,4.42.54,5.51,1.64,1.08,1.09,1.63,2.54,1.63,4.34v8.24ZM296.72,14.7h14.41c2.59,0,4.42.54,5.51,1.64,1.08,1.09,1.63,2.54,1.63,4.34v8.24c0,1.8-.54,3.24-1.63,4.34-1.08,1.09-2.92,1.64-5.51,1.64h-5.92v10.73h-8.49V14.7ZM319.76,155.43c-.37,1.02-.9,1.91-1.59,2.65-.69.74-1.53,1.32-2.5,1.71-.96.39-2.03.59-3.2.59s-2.25-.2-3.2-.59c-.97-.39-1.81-.97-2.5-1.71-.69-.74-1.22-1.63-1.59-2.65-.36-1.01-.55-2.15-.55-3.37s.18-2.38.55-3.38c.37-1.02.9-1.9,1.59-2.63.69-.73,1.53-1.3,2.49-1.7,1.92-.78,4.49-.78,6.41,0,.96.39,1.8.96,2.49,1.68.69.72,1.22,1.6,1.59,2.62.36,1.01.55,2.14.55,3.39s-.18,2.38-.55,3.39ZM344.47,157.97c-.55.77-1.32,1.37-2.31,1.79-.96.4-2.1.61-3.38.61-.82,0-1.61-.07-2.36-.21-.76-.14-1.47-.35-2.11-.62-.65-.27-1.23-.61-1.74-.99l-.35-.26,1.26-3.24.6.42c.44.31.91.57,1.4.79.48.22,1,.38,1.55.49.55.11,1.14.17,1.76.17.98,0,1.72-.16,2.12-.45.37-.27.54-.58.54-1,0-.21-.05-.38-.14-.52-.1-.15-.28-.28-.54-.41-.31-.15-.74-.28-1.28-.38l-2.36-.49c-1.46-.31-2.58-.85-3.32-1.6-.77-.78-1.16-1.82-1.16-3.08,0-1.06.29-1.99.86-2.79.56-.78,1.34-1.39,2.32-1.81.95-.41,2.06-.62,3.29-.62.72,0,1.43.07,2.1.21.68.15,1.32.36,1.89.64.58.29,1.1.64,1.54,1.04l.29.27-1.28,3.14-.6-.5c-.54-.45-1.15-.79-1.79-1.02-.65-.23-1.38-.34-2.17-.34-.58,0-1.08.08-1.48.24-.37.15-.65.34-.83.59-.18.23-.26.51-.26.84,0,.35.1.6.32.8.18.16.59.4,1.49.58l2.34.49c1.51.32,2.66.84,3.43,1.55.81.75,1.22,1.75,1.22,2.98,0,1.01-.28,1.92-.83,2.7ZM345.31,67.78h-26.56v15.78h21.95v15.05h-21.95v16.38h26.56v15.05h-47.79V52.73h47.79v15.05ZM337.2,35.5v10.12h-8.49v-10.04l-8.59-20.88h8.68l4.08,13.05,3.78-13.05h8.63l-8.1,20.8Z"/>
      <path class="cls-1" d="M309.48,28.6c.19-.18.29-.44.29-.8v-6.03c0-.35-.1-.62-.29-.79-.19-.18-.5-.27-.92-.27h-3.35v8.15h3.35c.42,0,.73-.09.92-.27Z"/>
      <path class="cls-1" d="M314.54,147.79c-.56-.36-1.26-.54-2.07-.54s-1.49.18-2.05.54c-.56.36-.99.88-1.29,1.58-.32.73-.48,1.63-.48,2.68s.16,1.94.48,2.67c.31.71.73,1.23,1.3,1.6.56.36,1.25.55,2.04.55s1.5-.18,2.05-.55c.56-.37.98-.89,1.29-1.6.32-.73.48-1.63.48-2.67s-.16-1.96-.47-2.69c-.3-.7-.72-1.22-1.28-1.58Z"/>
      <path class="cls-1" d="M283.9,20.72h-3.35v8.15h3.35c.42,0,.73-.09.92-.27.19-.18.29-.44.29-.8v-6.03c0-.35-.1-.62-.29-.79-.19-.18-.5-.27-.92-.27Z"/>
    </g>
  </g>
</svg>