<?xml version="1.0" encoding="UTF-8"?>
<svg id="Layer_2" data-name="Layer 2" xmlns="http://www.w3.org/2000/svg" viewBox="0 0 360 158">
  <defs>
    <style>
      .cls-1 {
        fill: #f92d2d;
        stroke-width: 0px;
      }
    </style>
  </defs>
  <g id="Layer_1-2" data-name="Layer 1">
    <g>
      <g>
        <path class="cls-1" d="M89.27,83.56c-4.05,6.77-9.31,6.35-9.89,6.29-.04,0-.07,0-.1,0-.58.07-5.84.49-9.89-6.29-.49-.81-1.73-.46-2.12.41-.69,1.53-1.22,4.77.46,7.28.68,1.01,1.86,1.47,3.01,1.25,1.6-.31,4.49-.71,8.6-.71s7,.4,8.6.71c1.14.22,2.33-.24,3.01-1.25,1.68-2.5,1.15-5.75.46-7.28-.39-.87-1.64-1.22-2.12-.41Z"/>
        <path class="cls-1" d="M82.56,156.95c-2.26-1.54-3.97-3.06-4.67-3.91-.24-.3-.72-.17-.79.21-.22,1.18-.23,2.73-.16,4.21.01.3.27.54.57.54h4.72c.57,0,.79-.73.32-1.05Z"/>
        <path class="cls-1" d="M152.36,0h-46.28C105.53,0,105.29.69,105.72,1.03c1.94,1.52,3.94,3.37,5.78,5.6.21.25.13.56-.17.69-.71.32-1.42.66-2.1,1.03-2.91,1.57-5.57,3.54-7.83,5.9-.15.16-.4.19-.58.06l-3.54-2.52c-.36-.26-.84.11-.68.52l1.93,5.12c.05.14.03.29-.05.41-.13.19-.26.38-.38.57-1.8,2.67-3.48,5.5-5.12,8.26-2.55,4.19-4.84,8.69-8.08,12.31-2.69,2.82-8.49,2.82-11.19,0-1.57-1.66-2.96-3.8-4.22-5.8-1.56-2.5-3.06-5.06-4.59-7.62-.08-.13-.08-.29-.02-.42l5.03-10.68c.22-.48-.41-.88-.75-.48l-6.13,7.39c-.2.24-.56.21-.73-.05-.26-.41-.51-.82-.77-1.23-.52-.76-1.42-2.17-1.96-2.9-1-1.37-2.22-2.58-3.49-3.67-3.41-2.75-7.36-4.65-11.54-5.69-.31-.08-.45-.43-.26-.69,1.62-2.3,3.48-4.33,5.58-6.15C50.26.66,50.01,0,49.48,0H5.75C2.57,0,0,2.57,0,5.75v60.92c0,.62.84.8,1.1.24l.49-1.07c.15-.33.62-.35.8-.03l8.37,14.93c.12.22.04.49-.17.61l-2.24,1.26c-.22.12-.29.39-.17.61l4.58,8.17c.18.32-.08.71-.45.66l-3.87-.47c-.14-.02-.27-.1-.34-.23l-7.02-12.53c-.29-.52-1.08-.31-1.08.28v73.15c0,3.17,2.57,5.75,5.75,5.75h59.66c.57,0,.79-.73.32-1.05-4.03-2.68-8.18-6.74-10.77-12.92-.09-.22.02-.49.23-.59,6.11-2.83,9.92-6.69,11.76-8.91.32-.38-.13-.91-.56-.67-4.98,2.71-10.09,3.99-13.98,4.6-.09.01-.18,0-.27-.04-1.21-.62-2.78-1.29-2.77-4.28,0-3.29,1.52-4.61,2.45-6.15.06-.1.15-.17.26-.2,3.95-1.03,7.81-2.41,11.58-4,5.62-2.57,11.4-5.51,17.13-7.75,5.57-2.13,12.13-4.22,18.48-4.5.22,0,.43.15.46.37.16,1.12.1,2.4-.02,3.73-.04.42.47.66.77.36,1.18-1.22,2.09-2.54,2.51-4.01.06-.21.26-.36.48-.34,2.24.22,4.41.73,6.46,1.61.49.19.96.4,1.43.62.02,0,.04.02.05.03,2.12,1.31,3.78,2.47,3.98,5.33.12,1.8-.15,3.05-.55,3.96-.1.23-.38.32-.6.21-6.57-3.33-14.15-2.33-18.36-1.34-.51.12-.43.86.09.88,4.06.16,11.09,1.17,16.73,5.86.12.1.18.25.17.4-.81,9.37-6.57,16.63-8.73,18.66-.28.26-.73.08-.75-.3-.15-2.61-2.02-10.32-2.6-11.99-.16-.46-.84-.37-.87.11-.66,9.19-3.14,16.97-5.01,21.53-.16.38.12.79.53.79h56.92c3.18,0,5.75-2.57,5.75-5.75v-75.35l-.02.03c-.12.22-.39.29-.61.17l-2.82-1.58c-.22-.12-.49-.04-.61.17l-5.94,10.6c-.12.22-.04.49.17.61l2.82,1.58c.22.12.29.39.17.61l-1.26,2.25c-.07.12-.2.21-.34.23l-8.14.98c-.36.04-.63-.34-.45-.66l14.63-26.1c.18-.32.65-.3.8.03l.49,1.07c.26.56,1.1.38,1.1-.24V5.75C158.11,2.57,155.53,0,152.36,0ZM33.51,22.2c.64-1.64,1.45-2.1,4.72-3.64,0-.01.01-.03.02-.04,4.5-1.47,9.9-.83,13.95,1.45,1.42.78,2.63,1.84,3.68,3.05,1.16,1.28,2.24,2.62,3.32,3.99l-.04.05h.09c.06.08.12.16.17.23,3.11,4.01,5.86,8.27,8.94,12.35,2.81,3.86,5.96,6.2,10.94,6.19,6.85.06,9.71-4.31,13.29-9.29,3.3-4.61,6.44-9.24,10.23-13.44,3.47-4.13,10.33-7.32,16-6.42.02.03.04.06.07.1,3.68,1.37,4.53,1.79,5.68,4.04,1.16,2.27.69,4.63-.41,6.48-.1.18-.32.25-.51.19-1.53-.45-8.29-1.77-17.89,6.63-5.48,4.79-9.27,8.71-13.11,11.42-3.83,2.72-7.7,4.24-13.33,4.24h0c-11.25,0-15.48-6.08-26.43-15.66-9.64-8.44-16.42-7.07-17.91-6.63-.19.06-.39-.01-.5-.17-1.01-1.51-1.64-3.4-.96-5.14ZM78.18,72.7c-8.34,0-14.54,1.77-19.11,4.19-2.31,1.22-4.72,1.78-7.08,1.78-7.82,0-15-6.17-15.31-14.82,0-.22-.01-.44-.02-.66-.16-8.9,7.16-15.52,15.28-15.52,2.1,0,4.26.45,6.35,1.41,3.72,1.72,7.45,3.11,10.71,4.19,3.34,1.11,6.81,1.66,10.28,1.66s6.94-.55,10.28-1.66c3.26-1.08,6.99-2.47,10.71-4.19,2.09-.97,4.25-1.41,6.35-1.41,8.11,0,15.44,6.63,15.28,15.52,0,.22,0,.44-.02.66-.31,8.65-7.48,14.82-15.31,14.82-2.36,0-4.77-.56-7.08-1.78-4.58-2.43-10.77-4.2-19.12-4.2-.36,0-.73,0-1.1.01,0,0,0,0,0,0h0c-.37,0-.74-.01-1.1-.01ZM25.85,92.89c-1.26,0-2.47-.66-3.13-1.83L5.57,60.47c-.8-1.43-.52-3.17.58-4.28.14-.14.15-.35.06-.52l-3.76-6.7c-.82-1.47.43-3.54,2.81-2.82.11.03.2.11.26.21l4.06,7.23c.12.22.39.29.61.17l1.77-.99c.22-.12.29-.39.17-.61l-1.75-3.11c-.82-1.47.43-3.54,2.81-2.82.11.03.2.11.26.21l2.16,3.85c.1.19.33.28.53.21.38-.13.78-.2,1.17-.2,1.26,0,2.47.66,3.13,1.83l.61,1.09c.07.12.07.26.02.38-1.08,2.69-1.68,5.61-1.68,8.68,0,11.08,7.76,20.39,18.13,22.76.26.06.42.32.33.57-.27.81-.84,1.53-1.64,1.99l-8.61,4.83c-.56.31-1.16.46-1.75.46ZM118.19,99.32c-.77-.95-2.02-2.31-3.41-3.16-.37-.23-.82.14-.66.54.65,1.64,1.68,4.86,1.22,7.73-.08.47-.72.53-.87.08-.64-1.96-2.43-5.5-7.4-9.77-.38-.33-.93.12-.68.56,1,1.76,2.28,4.49,3.2,8.08.08.33-.22.62-.55.54-8.98-2.29-19.16,1.59-27.47,5.48-.28.13-.59-.05-.63-.35l-1.22-9.58c-.07-.52-.82-.52-.89,0l-1.49,11.76c-.02.15-.11.27-.24.34-3.08,1.56-6.12,3.26-9.16,4.91-.18.1-.41.06-.55-.1l-7.89-8.86c-.26-.29-.75-.13-.78.26l-1.18,13.38c-.02.17-.13.32-.29.38-1.55.59-3.12,1.12-4.71,1.57-.25.07-.51-.08-.56-.33-3.27-13.88.67-23.58,3.07-27.84.25-.44-.32-.89-.7-.55-5.56,5.01-8.03,10.46-9.01,13.25-.16.46-.83.37-.87-.11-.2-2.06-.02-3.86.14-4.88.06-.37-.34-.64-.67-.46-3.15,1.78-5.19,3.98-6.29,5.4-.28.36-.87.11-.8-.34.84-5.59,3.83-10.09,3.83-10.09l-.68-.08c-1.45-.18-2.77-.69-3.89-1.46-.27-.19-.25-.6.04-.76l2.71-1.52c2.09-1.17,3.6-3.09,4.25-5.4.09-.31.15-.61.2-.92.03-.21.21-.37.42-.38,3.4-.13,7.23-.94,11-2.29.27-.1.56.08.6.36.19,1.66,1.1,4.2,4.29,7.1.36.33.92-.09.7-.53-1.22-2.49-2.35-6.6,1.33-9.6.03-.02.06-.05.1-.06,4.5-2.25,10.03-3.39,16.46-3.39.33,0,.66,0,.99,0h.04s.03,0,.03,0h.14s.08,0,.08,0c.31,0,.62,0,.92,0,5.81,0,10.89.93,15.14,2.77.03.01.05.03.08.04,4.72,3.02,3.52,7.56,2.21,10.23-.22.44.33.87.7.54,3.19-2.9,4.1-5.44,4.29-7.1.03-.29.33-.46.6-.36,3.78,1.35,7.6,2.16,11.01,2.3.21,0,.38.16.42.38.42,2.47,1.87,4.75,4.16,6.14l-.27-.05c-.33-.06-.61.24-.52.57.27.91.69,2.69.8,5.36.02.43-.52.64-.79.31ZM154.07,57.73l-11.72,20.9c-.09.17-.28.26-.47.22l-3.7-.66c-.19-.03-.38.06-.47.22l-4.35,7.76c-.09.17-.07.37.06.52l2.49,2.81c.13.14.15.35.06.52l-.58,1.04c-.66,1.17-1.88,1.83-3.13,1.83-.59,0-1.2-.15-1.75-.46l-8.61-4.83c-.81-.45-1.37-1.17-1.64-1.99-.08-.25.07-.52.33-.57,10.37-2.37,18.14-11.68,18.14-22.76,0-3.07-.6-6-1.68-8.69-.05-.13-.04-.27.02-.38l.61-1.08c.66-1.17,1.88-1.83,3.13-1.83.59,0,1.2.15,1.75.46l.2.11c.22.12.49.04.61-.17l1.72-3.06c.12-.22.39-.29.61-.17l6.63,3.72c.22.12.29.39.17.61l-1.72,3.06c-.12.22-.04.49.17.61l2.94,1.65c.22.12.29.39.17.61Z"/>
      </g>
      <g>
        <path class="cls-1" d="M182.29,148.76l-2.54-.53c-.9-.19-1.54-.44-1.91-.78-.37-.33-.56-.78-.56-1.34,0-.5.14-.93.41-1.29.27-.36.66-.65,1.18-.85s1.13-.3,1.84-.3c.93,0,1.79.14,2.57.41.78.27,1.49.68,2.15,1.22l.91-2.23c-.44-.4-.94-.75-1.53-1.03-.58-.29-1.22-.5-1.91-.65-.69-.15-1.41-.22-2.16-.22-1.26,0-2.37.21-3.34.63-.96.42-1.72,1.01-2.26,1.77-.54.76-.82,1.65-.82,2.67,0,1.21.36,2.18,1.08,2.91.72.73,1.82,1.26,3.3,1.57l2.57.53c.64.12,1.15.28,1.54.46.39.19.67.41.84.66.17.26.26.56.26.92,0,.65-.28,1.18-.84,1.59-.56.41-1.45.62-2.68.62-.72,0-1.4-.07-2.04-.2-.65-.13-1.25-.33-1.82-.58-.57-.26-1.11-.56-1.62-.92l-.91,2.35c.51.39,1.1.72,1.76,1,.66.28,1.38.49,2.17.64.78.15,1.61.22,2.46.22,1.32,0,2.47-.21,3.44-.62.97-.41,1.72-.99,2.25-1.73.53-.74.79-1.6.79-2.58,0-1.16-.38-2.09-1.13-2.79-.75-.7-1.9-1.21-3.44-1.53Z"/>
        <polygon class="cls-1" points="202.15 143.88 207.79 143.88 207.79 157.77 210.78 157.77 210.78 143.88 216.42 143.88 216.42 141.4 202.15 141.4 202.15 143.88"/>
        <path class="cls-1" d="M242.11,151.03c0,1.47-.33,2.57-1,3.31-.67.74-1.65,1.1-2.94,1.1s-2.27-.37-2.95-1.1c-.68-.73-1.01-1.84-1.01-3.31v-9.64h-2.99v9.66c0,2.29.59,4.02,1.78,5.19,1.19,1.17,2.91,1.75,5.17,1.75s3.99-.58,5.15-1.75c1.17-1.17,1.75-2.9,1.75-5.19v-9.66h-2.96v9.64Z"/>
        <path class="cls-1" d="M270.41,142.35c-1.28-.64-2.84-.95-4.68-.95h-6.11v16.37h6.11c1.83,0,3.39-.32,4.68-.95,1.28-.63,2.26-1.56,2.94-2.79.68-1.22,1.01-2.71,1.01-4.46s-.34-3.23-1.01-4.45c-.68-1.22-1.66-2.14-2.94-2.77ZM269.83,153.88c-.94.95-2.37,1.43-4.28,1.43h-2.94v-11.45h2.94c1.9,0,3.32.47,4.27,1.42.95.94,1.42,2.38,1.42,4.3s-.47,3.36-1.41,4.31Z"/>
        <rect class="cls-1" x="294.36" y="141.4" width="2.99" height="16.37"/>
        <path class="cls-1" d="M330.46,143.44c-.69-.73-1.52-1.29-2.5-1.68-.97-.39-2.06-.59-3.25-.59s-2.28.2-3.25.59c-.97.39-1.8.96-2.5,1.7-.69.73-1.22,1.62-1.6,2.65-.37,1.03-.56,2.19-.56,3.47s.19,2.42.56,3.46c.37,1.04.91,1.93,1.6,2.67.69.74,1.52,1.31,2.5,1.71.97.39,2.06.59,3.25.59s2.28-.2,3.25-.59c.97-.39,1.8-.96,2.5-1.71.69-.74,1.22-1.63,1.6-2.67.37-1.04.56-2.2.56-3.48s-.19-2.44-.56-3.47c-.37-1.03-.91-1.91-1.6-2.64ZM328.92,152.73c-.38.88-.93,1.56-1.63,2.02s-1.57.7-2.58.7-1.85-.23-2.57-.7c-.72-.46-1.26-1.14-1.64-2.02-.38-.88-.57-1.93-.57-3.16s.19-2.3.57-3.17c.38-.87.93-1.54,1.64-2,.71-.46,1.57-.68,2.57-.68s1.87.23,2.59.68c.71.46,1.26,1.12,1.63,2,.37.87.56,1.93.56,3.17s-.19,2.28-.57,3.16Z"/>
        <path class="cls-1" d="M355.43,148.76l-2.54-.53c-.9-.19-1.54-.44-1.91-.78s-.56-.78-.56-1.34c0-.5.14-.93.41-1.29.27-.36.66-.65,1.18-.85s1.13-.3,1.84-.3c.93,0,1.79.14,2.57.41.78.27,1.49.68,2.15,1.22l.91-2.23c-.44-.4-.94-.75-1.53-1.03-.58-.29-1.22-.5-1.91-.65-.69-.15-1.41-.22-2.16-.22-1.26,0-2.37.21-3.34.63-.96.42-1.72,1.01-2.26,1.77-.54.76-.82,1.65-.82,2.67,0,1.21.36,2.18,1.08,2.91.72.73,1.82,1.26,3.3,1.57l2.57.53c.64.12,1.15.28,1.54.46.39.19.67.41.84.66.17.26.26.56.26.92,0,.65-.28,1.18-.84,1.59-.56.41-1.45.62-2.68.62-.72,0-1.4-.07-2.04-.2-.65-.13-1.25-.33-1.82-.58-.57-.26-1.11-.56-1.62-.92l-.91,2.35c.51.39,1.1.72,1.76,1,.66.28,1.38.49,2.17.64.79.15,1.61.22,2.46.22,1.32,0,2.47-.21,3.44-.62.97-.41,1.72-.99,2.25-1.73.53-.74.79-1.6.79-2.58,0-1.16-.38-2.09-1.13-2.79-.75-.7-1.9-1.21-3.44-1.53Z"/>
        <path class="cls-1" d="M181.12,20.04h5.07c.46,0,.79.1,1,.29.21.19.32.48.32.86v4.78c0,.38-.11.67-.32.86-.21.2-.55.29-1,.29h-1.53c-.46,0-.79-.09-1-.29-.21-.19-.32-.48-.32-.86v-2.83h-9.24v4.04c0,1.96.59,3.53,1.77,4.72,1.18,1.19,3.18,1.78,6,1.78h7.18c2.82,0,4.81-.59,5.97-1.78,1.16-1.19,1.74-2.76,1.74-4.72v-6.92c0-1.95-.52-3.51-1.56-4.67-1.04-1.16-2.93-1.73-5.68-1.73h-4.96c-.46,0-.79-.09-1-.29-.21-.19-.32-.48-.32-.87v-4.99c0-.38.11-.67.32-.86.21-.19.55-.29,1-.29h1.53c.46,0,.79.1,1,.29.21.19.32.48.32.86v2.83h9.24v-4.04c0-1.96-.58-3.53-1.74-4.72C193.75.6,191.76,0,188.94,0h-7.24c-2.82,0-4.81.59-5.97,1.78-1.16,1.19-1.74,2.76-1.74,4.72v6.92c0,1.96.5,3.55,1.5,4.77,1,1.22,2.88,1.84,5.63,1.84Z"/>
        <path class="cls-1" d="M207.91,33.67h7.45c2.82,0,4.82-.59,6-1.78,1.18-1.19,1.77-2.76,1.77-4.72v-5.87h-9.24v5.19c0,.38-.11.67-.32.86-.21.19-.55.29-1,.29h-1.85c-.46,0-.79-.1-1-.29-.21-.19-.32-.48-.32-.86V7.19c0-.38.11-.67.32-.87.21-.19.55-.29,1-.29h1.85c.46,0,.79.1,1,.29.21.19.32.48.32.87v5.4h9.24v-6.08c0-1.96-.59-3.53-1.77-4.72C220.18.6,218.18,0,215.36,0h-7.45c-2.82,0-4.82.59-6,1.78-1.18,1.19-1.77,2.76-1.77,4.72v20.66c0,1.96.59,3.53,1.77,4.72,1.18,1.19,3.18,1.78,6,1.78Z"/>
        <path class="cls-1" d="M235.91,21.71h.59l5.38,11.96h9.93l-6.24-12.31c1.18-.29,2.12-.76,2.78-1.43,1.18-1.19,1.77-2.76,1.77-4.72V6.51c0-1.96-.59-3.53-1.77-4.72C247.17.6,245.17,0,242.35,0h-15.69v33.67h9.24v-11.96ZM235.91,6.56h3.64c.46,0,.79.1,1,.29.21.19.32.48.32.86v6.61c0,.38-.11.67-.32.86-.21.2-.55.29-1,.29h-3.64V6.56Z"/>
        <path class="cls-1" d="M295.94,0h-15.69v33.67h9.24v-11.69h6.44c2.82,0,4.82-.6,6-1.78,1.18-1.19,1.77-2.76,1.77-4.72V6.51c0-1.96-.59-3.53-1.77-4.72-1.18-1.19-3.18-1.78-6-1.78ZM294.46,14.28c0,.38-.11.67-.32.87-.21.19-.55.29-1,.29h-3.64V6.56h3.64c.46,0,.79.1,1,.29.21.19.32.48.32.86v6.57Z"/>
        <path class="cls-1" d="M316.34,21.99h6.44c2.82,0,4.82-.6,6-1.78,1.18-1.19,1.77-2.76,1.77-4.72V6.51c0-1.96-.59-3.53-1.77-4.72-1.18-1.19-3.18-1.78-6-1.78h-15.69v33.67h9.24v-11.69ZM316.34,6.56h3.64c.46,0,.79.1,1,.29.21.19.32.48.32.86v6.57c0,.38-.11.67-.32.87-.21.19-.55.29-1,.29h-3.64V6.56Z"/>
        <polygon class="cls-1" points="341.93 33.67 351.18 33.67 351.18 22.65 360 0 350.6 0 346.48 14.21 342.04 0 332.58 0 341.93 22.74 341.93 33.67"/>
        <path class="cls-1" d="M262.76,33.67v-11.96h4.86v11.96h9.24V6.51c0-1.96-.59-3.54-1.76-4.72-1.18-1.19-3.18-1.78-6-1.78h-7.82c-2.82,0-4.82.59-6,1.78-1.18,1.19-1.77,2.76-1.77,4.72v27.17h9.24ZM262.76,14.05v-6.34c0-.38.11-.67.32-.86.21-.2.54-.29,1-.29h2.22c.45,0,.79.09,1,.29.21.19.32.48.32.86v7.78h-4.86v-1.43Z"/>
        <path class="cls-1" d="M280.07,41.42h-39.23v84.18h23.11v-29.21h16.11c7.04,0,12.04-1.49,14.99-4.46,2.95-2.98,4.43-6.9,4.43-11.8v-22.44c0-4.9-1.48-8.84-4.43-11.8-2.95-2.98-7.95-4.46-14.99-4.46ZM276.37,77.1c0,.96-.26,1.69-.79,2.17-.53.48-1.36.73-2.51.73h-9.11v-22.19h9.11c1.14,0,1.98.25,2.51.73.53.48.79,1.2.79,2.16v16.41Z"/>
        <polygon class="cls-1" points="316.15 41.42 307.96 41.42 307.96 125.6 316.15 125.6 331.08 125.6 360 125.6 360 109.21 331.08 109.21 331.08 91.38 354.98 91.38 354.98 74.99 331.08 74.99 331.08 57.81 360 57.81 360 41.42 331.08 41.42 316.15 41.42"/>
        <path class="cls-1" d="M209.26,125.6h23.1V57.68c0-4.9-1.48-8.84-4.41-11.8-2.95-2.98-7.95-4.46-14.99-4.46h-19.55c-7.04,0-12.04,1.48-14.99,4.46-2.95,2.96-4.43,6.9-4.43,11.8v67.92h23.11v-29.89h12.16v29.89ZM197.11,80.14v-19.44c0-.96.27-1.68.8-2.16.53-.49,1.36-.72,2.51-.72h5.55c1.14,0,1.98.24,2.51.72.53.47.8,1.2.8,2.16v19.44h-12.16Z"/>
      </g>
    </g>
  </g>
</svg>