<?xml version="1.0" encoding="UTF-8"?>
<svg id="Layer_2" data-name="Layer 2" xmlns="http://www.w3.org/2000/svg" viewBox="0 0 170 304.3">
  <defs>
    <style>
      .cls-1 {
        fill: #ffce55;
        stroke-width: 0px;
      }
    </style>
  </defs>
  <g id="Layer_1-2" data-name="Layer 1">
    <g>
      <path class="cls-1" d="M44.72,38.33c1.36-.41,7.56-1.66,16.37,6.06,10.01,8.76,13.88,14.32,24.16,14.32h0c5.14,0,8.68-1.39,12.18-3.88,3.5-2.49,6.97-6.06,11.98-10.45,8.77-7.68,14.96-6.48,16.35-6.06.18.05.38-.02.47-.18,1.01-1.7,1.43-3.86.38-5.93-1.05-2.06-1.83-2.44-5.19-3.69-.02-.03-.04-.06-.06-.09-5.18-.82-11.45,2.09-14.62,5.87-3.46,3.83-6.33,8.07-9.35,12.28-3.27,4.55-5.89,8.54-12.15,8.49-4.55,0-7.43-2.13-10-5.66-2.82-3.73-5.33-7.62-8.17-11.29-.05-.07-.11-.13-.16-.2h-.08s.04-.06.04-.06c-.98-1.25-1.97-2.47-3.03-3.64-.96-1.11-2.07-2.07-3.37-2.79-3.7-2.09-8.64-2.68-12.75-1.33,0,.01-.01.02-.02.04-3,1.4-3.73,1.83-4.32,3.33-.62,1.59-.04,3.32.88,4.7.1.15.29.21.46.16Z"/>
      <path class="cls-1" d="M105.31,173.43h-2.83s0,6.9,0,6.9h2.83c.36,0,.62-.08.78-.23s.25-.37.25-.67v-5.1c0-.3-.08-.52-.25-.67s-.42-.23-.78-.23Z"/>
      <path class="cls-1" d="M131.17,281.01c-.47-.3-1.05-.45-1.73-.45s-1.24.15-1.71.45c-.47.3-.82.73-1.08,1.32-.27.61-.4,1.37-.4,2.25s.13,1.63.4,2.24c.26.59.61,1.03,1.08,1.34.47.3,1.04.46,1.7.46s1.25-.15,1.71-.45c.46-.31.82-.74,1.07-1.34.27-.62.4-1.37.4-2.24s-.13-1.65-.39-2.26c-.25-.58-.6-1.01-1.07-1.31Z"/>
      <path class="cls-1" d="M126.94,180.1c.16-.15.25-.37.25-.67v-5.1c0-.3-.08-.52-.25-.67s-.42-.23-.78-.23h-2.83s0,6.9,0,6.9h2.83c.36,0,.62-.08.78-.23Z"/>
      <path class="cls-1" d="M85.49,179.26v-.52s0-4.41,0-4.41c0-.3-.08-.52-.25-.67-.16-.15-.43-.23-.78-.23h-.37s-.99,0-.99,0h-.37c-.36,0-.62.07-.78.23-.16.15-.25.37-.25.67v4.41s0,.52,0,.52v1.11s3.78,0,3.78,0v-1.11Z"/>
      <path class="cls-1" d="M89.72,213.26h-7.08s0,17.24,0,17.24h7.08c.89,0,1.54-.19,1.95-.56.41-.37.62-.94.62-1.68v-12.76c0-.75-.2-1.3-.62-1.68-.41-.37-1.06-.56-1.95-.56Z"/>
      <path class="cls-1" d="M40.15,227.83v-1.31s0-11.02,0-11.02c0-.75-.21-1.31-.62-1.67-.41-.38-1.07-.56-1.95-.56h-.92s-2.46,0-2.46,0h-.92c-.9,0-1.54.18-1.95.56-.41.37-.62.93-.62,1.67v11.02s0,1.31,0,1.31v2.79s9.45,0,9.45,0v-2.79Z"/>
      <path class="cls-1" d="M63.68,173.43h-2.83s0,6.93,0,6.93h2.83c.36,0,.62-.07.78-.23.16-.15.25-.37.25-.67v-5.14c0-.3-.08-.52-.25-.67-.16-.15-.42-.23-.78-.23Z"/>
      <path class="cls-1" d="M83.88,280.67h-1.75s0,7.83,0,7.83h1.75c1.33,0,2.32-.32,2.95-.95.63-.63.94-1.63.94-2.97s-.32-2.34-.95-2.96c-.63-.63-1.62-.95-2.94-.95Z"/>
      <path class="cls-1" d="M121.24,98.28l.25.05c-2.09-1.28-3.41-3.35-3.8-5.62-.03-.19-.19-.34-.38-.34-3.11-.12-6.61-.86-10.06-2.1-.25-.09-.51.07-.54.33-.17,1.52-1,3.84-3.92,6.49-.33.3-.84-.08-.64-.49,1.19-2.44,2.29-6.58-2.02-9.35-.02-.01-.05-.03-.07-.04-3.88-1.68-8.53-2.54-13.84-2.54-.28,0-.56,0-.84,0h-.07s-.13,0-.13,0h-.02s-.04,0-.04,0c-.31,0-.61,0-.91,0-5.87,0-10.93,1.04-15.04,3.1-.03.02-.06.04-.09.06-3.36,2.74-2.33,6.5-1.21,8.77.2.4-.31.78-.64.48-2.91-2.65-3.74-4.97-3.92-6.49-.03-.26-.3-.42-.54-.33-3.45,1.23-6.94,1.98-10.06,2.1-.2,0-.35.15-.39.35-.05.28-.1.56-.18.84-.59,2.11-1.97,3.86-3.88,4.93l-2.47,1.39c-.27.15-.28.53-.03.7,1.03.7,2.23,1.18,3.56,1.34l.62.08s-2.74,4.11-3.5,9.22c-.06.42.47.65.73.31,1-1.29,2.86-3.3,5.74-4.93.3-.17.66.08.61.42-.14.94-.31,2.58-.13,4.46.04.44.65.52.8.1.9-2.55,3.16-7.54,8.24-12.12.34-.31.86.1.64.5-2.19,3.9-5.79,12.77-2.8,25.46.05.23.29.37.52.3,1.45-.42,2.89-.9,4.3-1.44.15-.06.25-.19.26-.35l1.08-12.23c.03-.36.48-.51.71-.24l7.21,8.1c.13.14.33.18.5.09,2.77-1.51,5.55-3.06,8.37-4.49.12-.06.2-.18.22-.31l1.36-10.75c.06-.48.75-.48.81,0l1.11,8.76c.04.28.33.44.58.32,7.59-3.55,16.9-7.1,25.11-5.01.3.08.58-.19.51-.49-.84-3.28-2.01-5.77-2.92-7.38-.23-.4.28-.81.62-.51,4.54,3.91,6.17,7.14,6.76,8.94.14.41.73.36.8-.07.42-2.62-.52-5.57-1.11-7.07-.14-.37.26-.7.6-.5,1.27.78,2.41,2.02,3.12,2.89.25.31.74.11.73-.28-.1-2.44-.48-4.07-.73-4.9-.09-.3.17-.58.47-.52ZM95.85,96.61c-.62.92-1.7,1.34-2.75,1.14-1.46-.28-4.1-.65-7.86-.65s-6.4.37-7.86.65c-1.05.2-2.13-.22-2.75-1.14-1.54-2.29-1.05-5.25-.42-6.65.36-.79,1.5-1.12,1.94-.38,3.7,6.19,8.51,5.81,9.04,5.75.03,0,.06,0,.1,0,.53.06,5.34.44,9.04-5.75.44-.74,1.58-.42,1.94.38.63,1.4,1.12,4.36-.42,6.65Z"/>
      <path class="cls-1" d="M85.2,79.65c.34,0,.67,0,1,0,7.63,0,13.29,1.62,17.47,3.84,2.11,1.12,4.31,1.63,6.47,1.63,7.15,0,13.71-5.64,13.99-13.55,0-.2.01-.4.02-.61.14-8.13-6.55-14.19-13.96-14.19-1.92,0-3.89.41-5.8,1.29-3.4,1.57-6.81,2.84-9.79,3.83-3.05,1.01-6.22,1.52-9.39,1.52s-6.35-.51-9.39-1.52c-2.98-.99-6.39-2.26-9.79-3.83-1.91-.88-3.88-1.29-5.8-1.29-7.42,0-14.11,6.06-13.96,14.19,0,.2,0,.4.02.6.28,7.91,6.84,13.55,13.99,13.55,2.16,0,4.36-.51,6.47-1.63,4.18-2.22,9.85-3.83,17.47-3.83.33,0,.66,0,1,0h0s0,0,0,0Z"/>
      <path class="cls-1" d="M161.5,0H8.5C3.81,0,0,3.81,0,8.5v287.3c0,4.69,3.81,8.5,8.5,8.5h153c4.69,0,8.5-3.81,8.5-8.5V8.5C170,3.81,166.19,0,161.5,0ZM12.75,173.39c0-1.52.45-2.75,1.35-3.67.9-.93,2.45-1.39,4.64-1.39h5.62c2.19,0,3.73.46,4.64,1.39.9.92,1.35,2.15,1.35,3.67v3.14h-7.18v-2.2c0-.3-.08-.52-.25-.67-.16-.15-.42-.23-.78-.23h-1.19c-.36,0-.62.08-.78.23-.16.15-.25.37-.25.67v3.87c0,.3.08.52.25.67.16.15.42.22.78.22h3.86c2.13,0,3.6.45,4.41,1.35.81.9,1.21,2.11,1.21,3.63v5.38c0,1.52-.45,2.75-1.35,3.67-.9.93-2.45,1.39-4.64,1.39h-5.58c-2.19,0-3.74-.46-4.66-1.39-.92-.92-1.37-2.15-1.37-3.67v-3.14h7.18v2.2c0,.3.08.52.25.67.16.15.42.23.78.23h1.19c.35,0,.62-.07.78-.23.16-.15.25-.37.25-.67v-3.71c0-.3-.08-.52-.25-.67-.16-.15-.42-.23-.78-.23h-3.94c-2.13,0-3.59-.47-4.37-1.43-.78-.95-1.17-2.19-1.17-3.71v-5.38ZM23.21,289.61c-.47.66-1.13,1.17-1.97,1.53-.82.34-1.79.52-2.88.52-.69,0-1.37-.06-2.01-.18-.64-.12-1.25-.3-1.79-.53-.55-.23-1.05-.52-1.48-.84l-.32-.24,1.1-2.83.55.39c.37.26.76.48,1.17.66.41.18.84.32,1.3.42.46.09.96.14,1.48.14,1.04,0,1.54-.2,1.77-.38.3-.22.44-.47.44-.81,0-.17-.04-.31-.11-.42-.08-.12-.23-.23-.44-.33-.26-.12-.62-.23-1.07-.32l-2-.42c-1.25-.26-2.2-.72-2.83-1.37-.66-.67-1-1.56-1-2.64,0-.9.25-1.71.73-2.38.48-.67,1.14-1.19,1.98-1.55.81-.35,1.76-.53,2.8-.53.61,0,1.22.06,1.79.18.58.12,1.12.31,1.61.55.49.24.94.54,1.31.89l.27.25-1.12,2.75-.56-.46c-.46-.38-.96-.67-1.5-.86-.54-.19-1.15-.29-1.82-.29-.49,0-.9.07-1.24.2-.31.12-.53.28-.68.48-.14.19-.21.41-.21.68s.08.48.26.64c.15.13.49.32,1.24.48l1.98.42c1.29.27,2.27.72,2.92,1.32.7.64,1.05,1.5,1.05,2.56,0,.87-.24,1.65-.71,2.31ZM30.71,265.95h-2.87s-15.08,0-15.08,0v-12.64s0-14.81,0-14.81v-10.66s0-1.31,0-1.31v-13.36c0-3.81,1.15-6.87,3.44-9.17,2.29-2.32,6.18-3.47,11.65-3.47h6.36s2.46,0,2.46,0h6.36c5.47,0,9.35,1.15,11.65,3.47,2.28,2.3,3.43,5.36,3.43,9.17v13.36s0,1.31,0,1.31v10.66s0,14.81,0,14.81v12.64h-15.07s-2.87,0-2.87,0v-23.23s-9.45,0-9.45,0v23.23ZM43.49,173.25c-.16-.15-.42-.23-.78-.23h-.37s-.7,0-.7,0h-.37c-.36,0-.62.08-.78.23-.16.15-.25.37-.25.67v15c0,.3.08.52.25.67.16.15.42.23.78.23h.37s.7,0,.7,0h.37c.36,0,.62-.08.78-.23.16-.15.25-.37.25-.67v-4.04h7.18v4.56c0,1.52-.46,2.75-1.37,3.67-.92.93-2.47,1.39-4.66,1.39h-2.54s-.7,0-.7,0h-2.54c-2.19,0-3.74-.46-4.66-1.39-.92-.92-1.37-2.15-1.37-3.67v-16.06c0-1.52.46-2.75,1.37-3.67.92-.93,2.47-1.39,4.66-1.39h2.54s.7,0,.7,0h2.54c2.19,0,3.74.46,4.66,1.39.92.92,1.37,2.15,1.37,3.67v4.73h-7.18v-4.2c0-.3-.08-.52-.25-.67ZM73.2,194.5h-7.71s-4.18-9.29-4.18-9.29h-.46s0,9.29,0,9.29h-7.18v-26.17h2.38s4.8,0,4.8,0h5.01c2.19,0,3.74.46,4.66,1.39.92.92,1.38,2.15,1.38,3.67v6.77c0,1.52-.46,2.74-1.38,3.67-.52.52-1.24.89-2.16,1.11l4.85,9.56ZM46.63,280.68h-4.38s0,10.79,0,10.79h-3.38v-10.79s-4.38,0-4.38,0v-2.99h12.15v2.99ZM68.69,285.73c0,1.92-.51,3.4-1.51,4.41-1,1.01-2.48,1.52-4.38,1.52s-3.36-.51-4.39-1.52c-1.02-1.01-1.54-2.49-1.54-4.41v-8.04h3.38v8.02c0,1,.22,1.74.65,2.21.42.46,1.05.69,1.9.69s1.47-.22,1.89-.68c.43-.47.64-1.21.64-2.21v-8.02h3.36v8.04ZM90.4,288.3c-.58,1.04-1.42,1.85-2.51,2.38-1.06.53-2.37.8-3.87.8h-5.28v-13.79h5.28c1.5,0,2.8.27,3.87.8,1.09.54,1.94,1.34,2.51,2.37.57,1.02.85,2.27.85,3.71s-.29,2.7-.85,3.72ZM108.91,291.48h-3.38v-13.79h3.38v13.79ZM110.24,230.6c0,3.81-1.15,6.86-3.44,9.17-2.29,2.31-6.17,3.47-11.65,3.47h-12.52s0,22.7,0,22.7h-17.96v-65.42h5.95s12,0,12,0h12.52c5.47,0,9.35,1.15,11.65,3.47,2.29,2.31,3.44,5.37,3.44,9.17v17.44ZM83.1,168.33h.99s2.55,0,2.55,0c2.19,0,3.74.46,4.66,1.39.91.92,1.37,2.15,1.37,3.67v5.34s0,.52,0,.52v4.27s0,5.92,0,5.92v5.06h-6.03s-1.15,0-1.15,0v-9.29s-3.78,0-3.78,0v9.29h-1.15s-6.03,0-6.03,0v-5.06s0-5.92,0-5.92v-4.27s0-.52,0-.52v-5.34c0-1.52.46-2.75,1.37-3.67.92-.93,2.47-1.39,4.66-1.39h2.54ZM83.22,153.29c.06-.34.5-.46.72-.19.64.78,2.2,2.17,4.27,3.58.43.29.23.96-.29.96h-4.31c-.28,0-.51-.22-.52-.5-.06-1.35-.06-2.77.14-3.85ZM113.52,180.37c0,1.52-.46,2.74-1.38,3.67-.92.92-2.47,1.39-4.66,1.39h-5.01s0,9.08,0,9.08h-7.18v-26.17h2.38s4.8,0,4.8,0h5.01c2.19,0,3.74.46,4.66,1.39.92.92,1.38,2.15,1.38,3.67v6.98ZM135.65,287.44c-.31.87-.77,1.63-1.35,2.26-.59.63-1.3,1.12-2.13,1.46-.82.33-1.74.5-2.73.5s-1.91-.17-2.73-.5c-.83-.34-1.54-.83-2.13-1.46-.58-.63-1.04-1.39-1.35-2.26-.31-.86-.47-1.83-.47-2.87s.16-2.02.47-2.88c.31-.87.77-1.62,1.35-2.24.59-.63,1.3-1.11,2.13-1.45,1.63-.66,3.82-.66,5.46,0,.82.33,1.53.82,2.12,1.43.59.62,1.04,1.37,1.36,2.23.31.86.47,1.82.47,2.88s-.16,2.03-.47,2.89ZM156.54,289.61c-.47.66-1.13,1.17-1.97,1.53-.82.34-1.79.52-2.88.52-.69,0-1.37-.06-2.01-.18-.64-.12-1.25-.3-1.79-.53-.55-.23-1.05-.52-1.48-.84l-.32-.24,1.1-2.83.55.39c.37.26.76.48,1.17.66.41.18.84.32,1.3.42.46.09.96.14,1.48.14,1.04,0,1.54-.2,1.77-.38.3-.22.43-.47.43-.81,0-.17-.04-.31-.11-.42-.08-.12-.23-.23-.44-.33-.26-.12-.62-.23-1.07-.32l-2-.42c-1.25-.26-2.2-.72-2.83-1.37-.66-.67-1-1.56-1-2.64,0-.9.25-1.71.73-2.38.48-.67,1.14-1.19,1.98-1.55.81-.35,1.76-.53,2.8-.53.61,0,1.22.06,1.79.18.58.12,1.12.31,1.61.55.49.24.94.54,1.31.89l.27.25-1.12,2.75-.56-.46c-.46-.38-.96-.67-1.5-.86-.54-.19-1.16-.29-1.82-.29-.49,0-.9.07-1.24.2-.31.12-.53.28-.68.48-.14.19-.21.41-.21.68,0,.28.08.48.26.64.15.13.49.32,1.24.48l1.98.42c1.29.27,2.27.72,2.92,1.32.7.64,1.05,1.5,1.05,2.56,0,.87-.24,1.64-.71,2.31ZM157.25,213.26h-22.47s0,13.35,0,13.35h18.57v12.74h-18.57s0,13.86,0,13.86h22.47v12.74h-22.47s-11.59,0-11.59,0h-6.36v-65.42h6.36s11.59,0,11.59,0h22.47v12.74ZM116.15,194.5v-26.17h2.38s4.8,0,4.8,0h5.01c2.19,0,3.74.46,4.66,1.39.92.92,1.38,2.15,1.38,3.67v6.98c0,1.52-.46,2.74-1.38,3.67-.92.92-2.47,1.39-4.66,1.39h-5.01s0,9.08,0,9.08h-7.18ZM150.4,185.94v8.56h-7.18v-8.5s-7.26-17.67-7.26-17.67h7.34s3.45,11.05,3.45,11.05l3.2-11.05h7.3s-6.85,17.6-6.85,17.6ZM157.25,74.13c0,.56-.77.73-1,.22l-.45-.98c-.14-.31-.57-.32-.73-.03l-13.37,23.86c-.16.29.07.65.41.61l7.44-.9c.13-.02.24-.09.31-.21l1.15-2.06c.11-.2.04-.45-.16-.56l-2.57-1.45c-.2-.11-.27-.36-.16-.56l5.43-9.69c.11-.2.36-.27.56-.16l2.57,1.45c.2.11.45.04.56-.16l.02-.03v68.89c0,2.9-2.35,5.25-5.25,5.25h-52.02c-.37,0-.63-.37-.49-.72,1.71-4.17,3.98-11.29,4.58-19.69.03-.44.65-.52.79-.1.53,1.53,2.24,8.58,2.38,10.97.02.35.43.52.69.28,1.98-1.86,7.23-8.49,7.98-17.06.01-.14-.05-.28-.15-.36-5.16-4.29-11.58-5.22-15.29-5.36-.48-.02-.54-.7-.08-.81,3.84-.91,10.77-1.82,16.78,1.23.21.1.46.02.55-.19.37-.83.62-1.98.51-3.62-.18-2.62-1.7-3.67-3.64-4.87-.02,0-.03-.02-.05-.03-.43-.2-.87-.4-1.31-.57-1.88-.81-3.86-1.27-5.9-1.47-.2-.02-.38.11-.44.31-.38,1.35-1.22,2.55-2.3,3.67-.27.28-.74.05-.7-.33.11-1.21.17-2.38.02-3.41-.03-.2-.22-.35-.42-.34-5.8.26-11.79,2.17-16.89,4.12-5.24,2.04-10.52,4.74-15.66,7.08-3.45,1.46-6.97,2.72-10.59,3.66-.1.03-.19.09-.24.18-.86,1.41-2.23,2.61-2.24,5.62,0,2.73,1.43,3.35,2.54,3.91.08.04.16.05.24.04,3.55-.55,8.22-1.72,12.77-4.2.4-.22.8.26.51.61-1.68,2.03-5.16,5.56-10.74,8.15-.2.09-.3.34-.21.54,2.37,5.65,6.16,9.36,9.85,11.81.43.29.22.96-.3.96H18c-2.9,0-5.25-2.35-5.25-5.25v-66.88c0-.54.72-.73.98-.26l6.42,11.45c.06.11.18.19.31.21l3.54.43c.33.04.57-.31.41-.61l-4.19-7.47c-.11-.2-.04-.45.16-.56l2.05-1.15c.2-.11.27-.36.16-.56l-7.65-13.65c-.16-.29-.59-.27-.73.03l-.45.98c-.23.51-1,.35-1-.22V18.43c0-2.9,2.35-5.25,5.25-5.25h39.97c.48,0,.71.6.34.92-1.92,1.67-3.62,3.53-5.1,5.63-.17.24-.04.56.24.63,3.82.95,7.43,2.69,10.55,5.2,1.16.99,2.28,2.1,3.19,3.35.5.66,1.32,1.95,1.79,2.65.24.37.47.75.71,1.12.15.24.49.26.66.05l5.6-6.75c.31-.37.89,0,.69.44l-4.59,9.76c-.06.12-.05.27.02.39,1.4,2.33,2.77,4.68,4.19,6.97,1.15,1.83,2.42,3.78,3.86,5.3,2.46,2.57,7.77,2.57,10.22,0,2.96-3.31,5.06-7.43,7.39-11.26,1.49-2.52,3.03-5.11,4.68-7.55.11-.18.23-.35.35-.52.08-.11.09-.25.05-.37l-1.76-4.68c-.14-.38.29-.71.62-.48l3.23,2.3c.17.12.39.09.53-.05,2.07-2.15,4.5-3.96,7.16-5.39.63-.34,1.27-.65,1.92-.94.27-.12.34-.41.15-.64-1.69-2.04-3.51-3.73-5.28-5.12-.39-.31-.18-.94.32-.94h42.3c2.9,0,5.25,2.35,5.25,5.25v55.7Z"/>
      <path class="cls-1" d="M153.41,65.4l-2.69-1.51c-.2-.11-.27-.36-.16-.56l1.57-2.8c.11-.2.04-.45-.16-.56l-6.06-3.4c-.2-.11-.45-.04-.56.16l-1.57,2.8c-.11.2-.36.27-.56.16l-.19-.1c-.51-.28-1.06-.42-1.6-.42-1.15,0-2.26.6-2.86,1.68l-.55.99c-.06.11-.07.24-.02.35.99,2.46,1.53,5.14,1.53,7.94,0,10.14-7.1,18.64-16.58,20.81-.24.05-.38.3-.3.53.25.74.76,1.4,1.5,1.82l7.86,4.42c.51.28,1.06.42,1.6.42,1.15,0,2.26-.6,2.86-1.68l.53-.95c.09-.15.07-.34-.05-.47l-2.28-2.57c-.12-.13-.14-.32-.05-.47l3.98-7.09c.09-.15.26-.23.43-.2l3.38.61c.17.03.34-.05.43-.2l10.71-19.11c.11-.2.04-.45-.16-.56Z"/>
      <path class="cls-1" d="M47.35,91.45c.08-.23-.07-.47-.3-.53-9.48-2.17-16.57-10.68-16.57-20.81,0-2.8.55-5.48,1.53-7.94.05-.11.04-.24-.02-.35l-.56-.99c-.6-1.07-1.72-1.68-2.86-1.68-.36,0-.72.06-1.07.19-.18.06-.39-.02-.48-.19l-1.97-3.52c-.05-.09-.14-.16-.24-.19-2.17-.66-3.32,1.23-2.57,2.58l1.6,2.85c.11.2.04.45-.16.56l-1.62.91c-.2.11-.45.04-.56-.16l-3.71-6.61c-.05-.09-.14-.16-.24-.19-2.17-.66-3.32,1.23-2.57,2.58l3.44,6.13c.09.15.07.35-.05.48-1,1.01-1.26,2.61-.53,3.91l15.67,27.96c.6,1.07,1.72,1.68,2.86,1.68.54,0,1.09-.14,1.6-.42l7.86-4.42c.74-.41,1.25-1.07,1.5-1.82Z"/>
    </g>
  </g>
</svg>